<?xml version="1.0" encoding="UTF-8"?>
<!DOCTYPE svg PUBLIC "-//W3C//DTD SVG 1.1//EN" "http://www.w3.org/Graphics/SVG/1.1/DTD/svg11.dtd">
<svg xmlns="http://www.w3.org/2000/svg" xmlns:xlink="http://www.w3.org/1999/xlink" version="1.1" width="123px" height="88px" viewBox="-0.5 -0.5 123 88"><defs/><g><rect x="0.99" y="1" width="120" height="85" fill="#e6e6e6" stroke="#50a294" stroke-width="2" pointer-events="all"/><path d="M 42.63 71.75 C 40.47 71.75 39.37 70.1 39.37 68.79 L 39.37 18.21 C 39.37 16.62 40.65 15.25 42.41 15.25 L 79.54 15.25 C 80.78 15.25 82.62 16.2 82.62 18.29 L 82.62 68.67 C 82.62 70.44 81.21 71.75 79.48 71.75 Z" fill="#50a294" stroke="none" pointer-events="all"/><path d="M 82.62 66.23 L 82.62 68.67 C 82.62 70.44 81.21 71.75 79.48 71.75 L 42.63 71.75 C 40.47 71.75 39.37 70.1 39.37 68.79 L 39.37 66.33 C 39.37 67.8 40.61 69.23 42.48 69.23 L 79.39 69.23 C 81.02 69.23 82.62 68.04 82.62 66.23 Z" fill-opacity="0.3" fill="#000000" stroke="none" pointer-events="all"/><rect x="39.37" y="15.25" width="0" height="0" fill="none" stroke="rgb(0, 0, 0)" pointer-events="all"/><path d="M 75.81 26.5 L 46.06 26.5 L 46.06 23.19 L 75.81 23.19 Z M 75.81 32.29 L 46.06 32.29 L 46.06 28.96 L 75.81 28.96 Z M 75.81 38.06 L 46.06 38.06 L 46.06 34.75 L 75.81 34.75 Z" fill="#ffffff" stroke="none" pointer-events="all"/></g></svg>