<?xml version="1.0" encoding="UTF-8"?>
<!DOCTYPE svg PUBLIC "-//W3C//DTD SVG 1.1//EN" "http://www.w3.org/Graphics/SVG/1.1/DTD/svg11.dtd">
<svg xmlns="http://www.w3.org/2000/svg" xmlns:xlink="http://www.w3.org/1999/xlink" version="1.1" width="123px" height="88px" viewBox="-0.5 -0.5 123 88"><defs/><g><rect x="1" y="1" width="120" height="85" fill="#e6e6e6" stroke="#50a294" stroke-width="2" pointer-events="all"/><rect x="11" y="11" width="50" height="40" fill="none" stroke="none" pointer-events="all"/><path d="M 14.16 39.67 L 57.84 39.67 L 57.84 14.33 L 14.16 14.33 Z M 21.79 51 C 20.9 51 20.49 50.23 20.49 49.69 C 20.49 48.82 21.18 48.33 21.71 48.33 L 33.15 48.33 L 33.15 45 L 12.25 45 C 11.49 45 11 44.3 11 43.71 L 11 12.34 C 11 11.58 11.57 11 12.28 11 L 59.73 11 C 60.43 11 61 11.6 61 12.33 L 61 43.65 C 61 44.46 60.38 45 59.72 45 L 38.85 45 L 38.85 48.33 L 50.21 48.33 C 50.99 48.33 51.51 48.98 51.51 49.68 C 51.51 50.43 50.89 51 50.26 51 Z" fill="#50a294" stroke="none" pointer-events="all"/><path d="M 88.32 76.43 C 89.01 76.43 89.71 75.84 89.71 75.08 C 89.71 74.33 89.24 73.61 88.35 73.61 C 87.45 73.61 86.9 74.25 86.9 75.01 C 86.9 75.72 87.57 76.43 88.32 76.43 Z M 94.89 77.37 C 95.93 77.37 97.08 76.56 97.08 75.13 C 97.08 73.77 96.19 72.75 94.87 72.75 C 93.46 72.75 92.54 73.88 92.54 75.12 C 92.54 76.32 93.57 77.37 94.89 77.37 Z M 101.34 76.41 C 102.09 76.41 102.71 75.75 102.71 74.99 C 102.71 74.28 102.18 73.58 101.32 73.58 C 100.4 73.58 99.89 74.23 99.89 75.03 C 99.89 75.85 100.57 76.41 101.34 76.41 Z M 106.07 71.18 C 106.62 71.18 106.84 70.76 106.84 70.3 L 106.84 38.09 C 106.84 37.37 106.62 37.06 105.81 37.06 L 83.78 37.06 C 83.15 37.06 82.75 37.35 82.75 37.9 L 82.75 70.39 C 82.75 70.91 83.05 71.18 83.54 71.18 Z M 82.3 79.75 C 81.64 79.75 81 79.18 81 78.44 L 81 32.31 C 81 31.67 81.6 31 82.3 31 L 107.2 31 C 107.83 31 108.3 31.47 108.3 32.11 L 108.3 78.75 C 108.3 79.33 107.75 79.75 107.22 79.75 Z" fill="#50a294" stroke="none" pointer-events="all"/></g></svg>