<?xml version="1.0" encoding="UTF-8"?>
<!DOCTYPE svg PUBLIC "-//W3C//DTD SVG 1.1//EN" "http://www.w3.org/Graphics/SVG/1.1/DTD/svg11.dtd">
<svg xmlns="http://www.w3.org/2000/svg" xmlns:xlink="http://www.w3.org/1999/xlink" version="1.1" width="222px" height="165px" viewBox="-0.5 -0.5 222 165"><defs><style type="text/css">@import url(https://fonts.googleapis.com/css?family=Architects+Daughter);&#xa;</style></defs><g><rect x="51" y="0.5" width="170" height="32.5" fill="#e6e6e6" stroke="#50a294" stroke-width="2" pointer-events="all"/><rect x="1" y="0.5" width="50" height="32.5" fill="#e6e6e6" stroke="#50a294" stroke-width="2" pointer-events="all"/><rect x="9.75" y="0.5" width="32.5" height="32.5" fill="none" stroke="none" pointer-events="all"/><path d="M 25.95 17.18 C 25.72 17.41 25.67 17.76 25.82 18.05 C 26.61 19.52 26.35 21.29 25.2 22.44 C 23.74 23.9 21.38 23.9 19.92 22.44 C 19.22 21.74 18.83 20.8 18.83 19.81 C 18.83 18.81 19.22 17.87 19.92 17.17 C 20.63 16.46 21.57 16.09 22.52 16.09 C 23.13 16.09 23.74 16.24 24.32 16.55 C 24.6 16.7 24.95 16.65 25.18 16.42 L 26.16 15.44 C 26.3 15.3 26.38 15.1 26.37 14.9 L 26.34 13.98 L 27.26 14.01 C 27.46 14.03 27.66 13.94 27.81 13.79 L 28.36 13.25 C 28.5 13.1 28.58 12.9 28.57 12.7 L 28.54 11.78 L 29.46 11.81 C 29.65 11.82 29.86 11.74 30 11.6 L 30.64 10.96 L 31.61 10.87 L 31.64 11.49 Z M 32.79 9.5 C 32.64 9.37 32.44 9.31 32.24 9.32 L 30.23 9.52 C 30.07 9.54 29.91 9.61 29.79 9.73 L 29.19 10.33 L 27.8 10.28 C 27.61 10.26 27.4 10.35 27.26 10.5 C 27.11 10.64 27.03 10.84 27.04 11.04 L 27.09 12.43 L 26.99 12.53 L 25.6 12.48 C 25.39 12.47 25.2 12.55 25.06 12.69 C 24.91 12.84 24.84 13.04 24.84 13.24 L 24.89 14.63 L 24.51 15.01 C 22.57 14.22 20.37 14.64 18.88 16.13 C 17.9 17.11 17.36 18.42 17.36 19.81 C 17.36 21.2 17.9 22.5 18.88 23.49 C 19.89 24.5 21.23 25.01 22.56 25.01 C 23.89 25.01 25.22 24.5 26.24 23.49 C 27.73 22 28.15 19.79 27.35 17.86 L 32.91 12.3 C 33.05 12.16 33.13 11.96 33.12 11.75 L 33.04 10.02 C 33.03 9.82 32.94 9.63 32.79 9.5 Z M 22.04 21.21 C 21.79 21.45 21.4 21.45 21.16 21.21 C 20.91 20.97 20.91 20.57 21.16 20.33 C 21.28 20.21 21.44 20.15 21.6 20.15 C 21.76 20.15 21.92 20.21 22.04 20.33 C 22.28 20.57 22.28 20.97 22.04 21.21 Z M 20.12 19.28 C 19.3 20.1 19.3 21.43 20.12 22.25 C 20.52 22.66 21.06 22.86 21.6 22.86 C 22.13 22.86 22.67 22.66 23.08 22.25 L 23.08 22.25 C 23.9 21.43 23.9 20.1 23.08 19.29 C 22.29 18.49 20.91 18.5 20.12 19.28 Z M 36.75 7.79 C 36.24 8.3 35.41 8.3 34.9 7.79 C 34.9 7.79 34.9 7.79 34.9 7.79 C 34.65 7.54 34.51 7.21 34.51 6.86 C 34.52 6.51 34.65 6.18 34.9 5.94 C 35.14 5.69 35.47 5.56 35.82 5.56 L 35.82 5.56 C 36.17 5.56 36.5 5.69 36.75 5.94 C 36.99 6.18 37.13 6.51 37.13 6.86 C 37.13 7.21 36.99 7.54 36.75 7.79 Z M 33.86 4.89 C 33.33 5.42 33.04 6.12 33.04 6.86 C 33.04 7.61 33.33 8.3 33.85 8.83 C 34.39 9.37 35.11 9.64 35.82 9.64 C 36.53 9.64 37.24 9.37 37.79 8.83 C 38.87 7.75 38.87 5.98 37.79 4.9 C 36.71 3.81 34.94 3.81 33.86 4.89 Z M 23.27 31.18 L 11.6 19.49 L 29.08 2.04 L 40.23 2.58 L 40.75 13.73 Z M 41.67 1.84 C 41.65 1.46 41.35 1.16 40.97 1.14 L 28.83 0.55 C 28.6 0.54 28.42 0.62 28.27 0.76 L 10.04 18.97 C 9.75 19.25 9.75 19.72 10.04 20.01 L 22.75 32.74 C 22.89 32.88 23.08 32.96 23.27 32.96 L 23.27 32.96 C 23.47 32.96 23.65 32.88 23.79 32.74 L 42.02 14.54 C 42.17 14.39 42.25 14.19 42.24 13.98 Z" fill="#50a294" stroke="none" pointer-events="all"/><rect x="51" y="33" width="170" height="32.5" fill="#e6e6e6" stroke="#50a294" stroke-width="2" pointer-events="all"/><rect x="1" y="33" width="50" height="32.5" fill="#e6e6e6" stroke="#50a294" stroke-width="2" pointer-events="all"/><rect x="9.75" y="33" width="32.5" height="32.5" fill="none" stroke="none" pointer-events="all"/><path d="M 25.95 49.68 C 25.72 49.91 25.67 50.26 25.82 50.55 C 26.61 52.02 26.35 53.79 25.2 54.94 C 23.74 56.4 21.38 56.4 19.92 54.94 C 19.22 54.24 18.83 53.3 18.83 52.31 C 18.83 51.31 19.22 50.37 19.92 49.67 C 20.63 48.96 21.57 48.59 22.52 48.59 C 23.13 48.59 23.74 48.74 24.32 49.05 C 24.6 49.2 24.95 49.15 25.18 48.92 L 26.16 47.94 C 26.3 47.8 26.38 47.6 26.37 47.4 L 26.34 46.48 L 27.26 46.51 C 27.46 46.53 27.66 46.44 27.81 46.29 L 28.36 45.75 C 28.5 45.6 28.58 45.4 28.57 45.2 L 28.54 44.28 L 29.46 44.31 C 29.65 44.32 29.86 44.24 30 44.1 L 30.64 43.46 L 31.61 43.37 L 31.64 43.99 Z M 32.79 42 C 32.64 41.87 32.44 41.81 32.24 41.82 L 30.23 42.02 C 30.07 42.04 29.91 42.11 29.79 42.23 L 29.19 42.83 L 27.8 42.78 C 27.61 42.76 27.4 42.85 27.26 43 C 27.11 43.14 27.03 43.34 27.04 43.54 L 27.09 44.93 L 26.99 45.03 L 25.6 44.98 C 25.39 44.97 25.2 45.05 25.06 45.19 C 24.91 45.34 24.84 45.54 24.84 45.74 L 24.89 47.13 L 24.51 47.51 C 22.57 46.72 20.37 47.14 18.88 48.63 C 17.9 49.61 17.36 50.92 17.36 52.31 C 17.36 53.7 17.9 55 18.88 55.99 C 19.89 57 21.23 57.51 22.56 57.51 C 23.89 57.51 25.22 57 26.24 55.99 C 27.73 54.5 28.15 52.29 27.35 50.36 L 32.91 44.8 C 33.05 44.66 33.13 44.46 33.12 44.25 L 33.04 42.52 C 33.03 42.32 32.94 42.13 32.79 42 Z M 22.04 53.71 C 21.79 53.95 21.4 53.95 21.16 53.71 C 20.91 53.47 20.91 53.07 21.16 52.83 C 21.28 52.71 21.44 52.65 21.6 52.65 C 21.76 52.65 21.92 52.71 22.04 52.83 C 22.28 53.07 22.28 53.47 22.04 53.71 Z M 20.12 51.78 C 19.3 52.6 19.3 53.93 20.12 54.75 C 20.52 55.16 21.06 55.36 21.6 55.36 C 22.13 55.36 22.67 55.16 23.08 54.75 L 23.08 54.75 C 23.9 53.93 23.9 52.6 23.08 51.79 C 22.29 50.99 20.91 51 20.12 51.78 Z M 36.75 40.29 C 36.24 40.8 35.41 40.8 34.9 40.29 C 34.9 40.29 34.9 40.29 34.9 40.29 C 34.65 40.04 34.51 39.71 34.51 39.36 C 34.52 39.01 34.65 38.68 34.9 38.44 C 35.14 38.19 35.47 38.06 35.82 38.06 L 35.82 38.06 C 36.17 38.06 36.5 38.19 36.75 38.44 C 36.99 38.68 37.13 39.01 37.13 39.36 C 37.13 39.71 36.99 40.04 36.75 40.29 Z M 33.86 37.39 C 33.33 37.92 33.04 38.62 33.04 39.36 C 33.04 40.11 33.33 40.8 33.85 41.33 C 34.39 41.87 35.11 42.14 35.82 42.14 C 36.53 42.14 37.24 41.87 37.79 41.33 C 38.87 40.25 38.87 38.48 37.79 37.4 C 36.71 36.31 34.94 36.31 33.86 37.39 Z M 23.27 63.68 L 11.6 51.99 L 29.08 34.54 L 40.23 35.08 L 40.75 46.23 Z M 41.67 34.34 C 41.65 33.96 41.35 33.66 40.97 33.64 L 28.83 33.05 C 28.6 33.04 28.42 33.12 28.27 33.26 L 10.04 51.47 C 9.75 51.75 9.75 52.22 10.04 52.51 L 22.75 65.24 C 22.89 65.38 23.08 65.46 23.27 65.46 L 23.27 65.46 C 23.47 65.46 23.65 65.38 23.79 65.24 L 42.02 47.04 C 42.17 46.89 42.25 46.69 42.24 46.48 Z" fill="#50a294" stroke="none" pointer-events="all"/><rect x="51" y="65.5" width="170" height="32.5" fill="#e6e6e6" stroke="#50a294" stroke-width="2" pointer-events="all"/><rect x="1" y="65.5" width="50" height="32.5" fill="#e6e6e6" stroke="#50a294" stroke-width="2" pointer-events="all"/><rect x="9.75" y="65.5" width="32.5" height="32.5" fill="none" stroke="none" pointer-events="all"/><path d="M 25.95 82.18 C 25.72 82.41 25.67 82.76 25.82 83.05 C 26.61 84.52 26.35 86.29 25.2 87.44 C 23.74 88.9 21.38 88.9 19.92 87.44 C 19.22 86.74 18.83 85.8 18.83 84.81 C 18.83 83.81 19.22 82.87 19.92 82.17 C 20.63 81.46 21.57 81.09 22.52 81.09 C 23.13 81.09 23.74 81.24 24.32 81.55 C 24.6 81.7 24.95 81.65 25.18 81.42 L 26.16 80.44 C 26.3 80.3 26.38 80.1 26.37 79.9 L 26.34 78.98 L 27.26 79.01 C 27.46 79.03 27.66 78.94 27.81 78.79 L 28.36 78.25 C 28.5 78.1 28.58 77.9 28.57 77.7 L 28.54 76.78 L 29.46 76.81 C 29.65 76.82 29.86 76.74 30 76.6 L 30.64 75.96 L 31.61 75.87 L 31.64 76.49 Z M 32.79 74.5 C 32.64 74.37 32.44 74.31 32.24 74.32 L 30.23 74.52 C 30.07 74.54 29.91 74.61 29.79 74.73 L 29.19 75.33 L 27.8 75.28 C 27.61 75.26 27.4 75.35 27.26 75.5 C 27.11 75.64 27.03 75.84 27.04 76.04 L 27.09 77.43 L 26.99 77.53 L 25.6 77.48 C 25.39 77.47 25.2 77.55 25.06 77.69 C 24.91 77.84 24.84 78.04 24.84 78.24 L 24.89 79.63 L 24.51 80.01 C 22.57 79.22 20.37 79.64 18.88 81.13 C 17.9 82.11 17.36 83.42 17.36 84.81 C 17.36 86.2 17.9 87.5 18.88 88.49 C 19.89 89.5 21.23 90.01 22.56 90.01 C 23.89 90.01 25.22 89.5 26.24 88.49 C 27.73 87 28.15 84.79 27.35 82.86 L 32.91 77.3 C 33.05 77.16 33.13 76.96 33.12 76.75 L 33.04 75.02 C 33.03 74.82 32.94 74.63 32.79 74.5 Z M 22.04 86.21 C 21.79 86.45 21.4 86.45 21.16 86.21 C 20.91 85.97 20.91 85.57 21.16 85.33 C 21.28 85.21 21.44 85.15 21.6 85.15 C 21.76 85.15 21.92 85.21 22.04 85.33 C 22.28 85.57 22.28 85.97 22.04 86.21 Z M 20.12 84.28 C 19.3 85.1 19.3 86.43 20.12 87.25 C 20.52 87.66 21.06 87.86 21.6 87.86 C 22.13 87.86 22.67 87.66 23.08 87.25 L 23.08 87.25 C 23.9 86.43 23.9 85.1 23.08 84.29 C 22.29 83.49 20.91 83.5 20.12 84.28 Z M 36.75 72.79 C 36.24 73.3 35.41 73.3 34.9 72.79 C 34.9 72.79 34.9 72.79 34.9 72.79 C 34.65 72.54 34.51 72.21 34.51 71.86 C 34.52 71.51 34.65 71.18 34.9 70.94 C 35.14 70.69 35.47 70.56 35.82 70.56 L 35.82 70.56 C 36.17 70.56 36.5 70.69 36.75 70.94 C 36.99 71.18 37.13 71.51 37.13 71.86 C 37.13 72.21 36.99 72.54 36.75 72.79 Z M 33.86 69.89 C 33.33 70.42 33.04 71.12 33.04 71.86 C 33.04 72.61 33.33 73.3 33.85 73.83 C 34.39 74.37 35.11 74.64 35.82 74.64 C 36.53 74.64 37.24 74.37 37.79 73.83 C 38.87 72.75 38.87 70.98 37.79 69.9 C 36.71 68.81 34.94 68.81 33.86 69.89 Z M 23.27 96.18 L 11.6 84.49 L 29.08 67.04 L 40.23 67.58 L 40.75 78.73 Z M 41.67 66.84 C 41.65 66.46 41.35 66.16 40.97 66.14 L 28.83 65.55 C 28.6 65.54 28.42 65.62 28.27 65.76 L 10.04 83.97 C 9.75 84.25 9.75 84.72 10.04 85.01 L 22.75 97.74 C 22.89 97.88 23.08 97.96 23.27 97.96 L 23.27 97.96 C 23.47 97.96 23.65 97.88 23.79 97.74 L 42.02 79.54 C 42.17 79.39 42.25 79.19 42.24 78.98 Z" fill="#50a294" stroke="none" pointer-events="all"/><rect x="51" y="98" width="170" height="32.5" fill="#e6e6e6" stroke="#50a294" stroke-width="2" pointer-events="all"/><rect x="1" y="98" width="50" height="32.5" fill="#e6e6e6" stroke="#50a294" stroke-width="2" pointer-events="all"/><rect x="9.75" y="98" width="32.5" height="32.5" fill="none" stroke="none" pointer-events="all"/><path d="M 25.95 114.68 C 25.72 114.91 25.67 115.26 25.82 115.55 C 26.61 117.02 26.35 118.79 25.2 119.94 C 23.74 121.4 21.38 121.4 19.92 119.94 C 19.22 119.24 18.83 118.3 18.83 117.31 C 18.83 116.31 19.22 115.37 19.92 114.67 C 20.63 113.96 21.57 113.59 22.52 113.59 C 23.13 113.59 23.74 113.74 24.32 114.05 C 24.6 114.2 24.95 114.15 25.18 113.92 L 26.16 112.94 C 26.3 112.8 26.38 112.6 26.37 112.4 L 26.34 111.48 L 27.26 111.51 C 27.46 111.53 27.66 111.44 27.81 111.29 L 28.36 110.75 C 28.5 110.6 28.58 110.4 28.57 110.2 L 28.54 109.28 L 29.46 109.31 C 29.65 109.32 29.86 109.24 30 109.1 L 30.64 108.46 L 31.61 108.37 L 31.64 108.99 Z M 32.79 107 C 32.64 106.87 32.44 106.81 32.24 106.82 L 30.23 107.02 C 30.07 107.04 29.91 107.11 29.79 107.23 L 29.19 107.83 L 27.8 107.78 C 27.61 107.76 27.4 107.85 27.26 108 C 27.11 108.14 27.03 108.34 27.04 108.54 L 27.09 109.93 L 26.99 110.03 L 25.6 109.98 C 25.39 109.97 25.2 110.05 25.06 110.19 C 24.91 110.34 24.84 110.54 24.84 110.74 L 24.89 112.13 L 24.51 112.51 C 22.57 111.72 20.37 112.14 18.88 113.63 C 17.9 114.61 17.36 115.92 17.36 117.31 C 17.36 118.7 17.9 120 18.88 120.99 C 19.89 122 21.23 122.51 22.56 122.51 C 23.89 122.51 25.22 122 26.24 120.99 C 27.73 119.5 28.15 117.29 27.35 115.36 L 32.91 109.8 C 33.05 109.66 33.13 109.46 33.12 109.25 L 33.04 107.52 C 33.03 107.32 32.94 107.13 32.79 107 Z M 22.04 118.71 C 21.79 118.95 21.4 118.95 21.16 118.71 C 20.91 118.47 20.91 118.07 21.16 117.83 C 21.28 117.71 21.44 117.65 21.6 117.65 C 21.76 117.65 21.92 117.71 22.04 117.83 C 22.28 118.07 22.28 118.47 22.04 118.71 Z M 20.12 116.78 C 19.3 117.6 19.3 118.93 20.12 119.75 C 20.52 120.16 21.06 120.36 21.6 120.36 C 22.13 120.36 22.67 120.16 23.08 119.75 L 23.08 119.75 C 23.9 118.93 23.9 117.6 23.08 116.79 C 22.29 115.99 20.91 116 20.12 116.78 Z M 36.75 105.29 C 36.24 105.8 35.41 105.8 34.9 105.29 C 34.9 105.29 34.9 105.29 34.9 105.29 C 34.65 105.04 34.51 104.71 34.51 104.36 C 34.52 104.01 34.65 103.68 34.9 103.44 C 35.14 103.19 35.47 103.06 35.82 103.06 L 35.82 103.06 C 36.17 103.06 36.5 103.19 36.75 103.44 C 36.99 103.68 37.13 104.01 37.13 104.36 C 37.13 104.71 36.99 105.04 36.75 105.29 Z M 33.86 102.39 C 33.33 102.92 33.04 103.62 33.04 104.36 C 33.04 105.11 33.33 105.8 33.85 106.33 C 34.39 106.87 35.11 107.14 35.82 107.14 C 36.53 107.14 37.24 106.87 37.79 106.33 C 38.87 105.25 38.87 103.48 37.79 102.4 C 36.71 101.31 34.94 101.31 33.86 102.39 Z M 23.27 128.68 L 11.6 116.99 L 29.08 99.54 L 40.23 100.08 L 40.75 111.23 Z M 41.67 99.34 C 41.65 98.96 41.35 98.66 40.97 98.64 L 28.83 98.05 C 28.6 98.04 28.42 98.12 28.27 98.26 L 10.04 116.47 C 9.75 116.75 9.75 117.22 10.04 117.51 L 22.75 130.24 C 22.89 130.38 23.08 130.46 23.27 130.46 L 23.27 130.46 C 23.47 130.46 23.65 130.38 23.79 130.24 L 42.02 112.04 C 42.17 111.89 42.25 111.69 42.24 111.48 Z" fill="#50a294" stroke="none" pointer-events="all"/><rect x="51" y="130.5" width="170" height="32.5" fill="#e6e6e6" stroke="#50a294" stroke-width="2" pointer-events="all"/><rect x="1" y="130.5" width="50" height="32.5" fill="#e6e6e6" stroke="#50a294" stroke-width="2" pointer-events="all"/><rect x="9.75" y="130.5" width="32.5" height="32.5" fill="none" stroke="none" pointer-events="all"/><path d="M 25.95 147.18 C 25.72 147.41 25.67 147.76 25.82 148.05 C 26.61 149.52 26.35 151.29 25.2 152.44 C 23.74 153.9 21.38 153.9 19.92 152.44 C 19.22 151.74 18.83 150.8 18.83 149.81 C 18.83 148.81 19.22 147.87 19.92 147.17 C 20.63 146.46 21.57 146.09 22.52 146.09 C 23.13 146.09 23.74 146.24 24.32 146.55 C 24.6 146.7 24.95 146.65 25.18 146.42 L 26.16 145.44 C 26.3 145.3 26.38 145.1 26.37 144.9 L 26.34 143.98 L 27.26 144.01 C 27.46 144.03 27.66 143.94 27.81 143.79 L 28.36 143.25 C 28.5 143.1 28.58 142.9 28.57 142.7 L 28.54 141.78 L 29.46 141.81 C 29.65 141.82 29.86 141.74 30 141.6 L 30.64 140.96 L 31.61 140.87 L 31.64 141.49 Z M 32.79 139.5 C 32.64 139.37 32.44 139.31 32.24 139.32 L 30.23 139.52 C 30.07 139.54 29.91 139.61 29.79 139.73 L 29.19 140.33 L 27.8 140.28 C 27.61 140.26 27.4 140.35 27.26 140.5 C 27.11 140.64 27.03 140.84 27.04 141.04 L 27.09 142.43 L 26.99 142.53 L 25.6 142.48 C 25.39 142.47 25.2 142.55 25.06 142.69 C 24.91 142.84 24.84 143.04 24.84 143.24 L 24.89 144.63 L 24.51 145.01 C 22.57 144.22 20.37 144.64 18.88 146.13 C 17.9 147.11 17.36 148.42 17.36 149.81 C 17.36 151.2 17.9 152.5 18.88 153.49 C 19.89 154.5 21.23 155.01 22.56 155.01 C 23.89 155.01 25.22 154.5 26.24 153.49 C 27.73 152 28.15 149.79 27.35 147.86 L 32.91 142.3 C 33.05 142.16 33.13 141.96 33.12 141.75 L 33.04 140.02 C 33.03 139.82 32.94 139.63 32.79 139.5 Z M 22.04 151.21 C 21.79 151.45 21.4 151.45 21.16 151.21 C 20.91 150.97 20.91 150.57 21.16 150.33 C 21.28 150.21 21.44 150.15 21.6 150.15 C 21.76 150.15 21.92 150.21 22.04 150.33 C 22.28 150.57 22.28 150.97 22.04 151.21 Z M 20.12 149.28 C 19.3 150.1 19.3 151.43 20.12 152.25 C 20.52 152.66 21.06 152.86 21.6 152.86 C 22.13 152.86 22.67 152.66 23.08 152.25 L 23.08 152.25 C 23.9 151.43 23.9 150.1 23.08 149.29 C 22.29 148.49 20.91 148.5 20.12 149.28 Z M 36.75 137.79 C 36.24 138.3 35.41 138.3 34.9 137.79 C 34.9 137.79 34.9 137.79 34.9 137.79 C 34.65 137.54 34.51 137.21 34.51 136.86 C 34.52 136.51 34.65 136.18 34.9 135.94 C 35.14 135.69 35.47 135.56 35.82 135.56 L 35.82 135.56 C 36.17 135.56 36.5 135.69 36.75 135.94 C 36.99 136.18 37.13 136.51 37.13 136.86 C 37.13 137.21 36.99 137.54 36.75 137.79 Z M 33.86 134.89 C 33.33 135.42 33.04 136.12 33.04 136.86 C 33.04 137.61 33.33 138.3 33.85 138.83 C 34.39 139.37 35.11 139.64 35.82 139.64 C 36.53 139.64 37.24 139.37 37.79 138.83 C 38.87 137.75 38.87 135.98 37.79 134.9 C 36.71 133.81 34.94 133.81 33.86 134.89 Z M 23.27 161.18 L 11.6 149.49 L 29.08 132.04 L 40.23 132.58 L 40.75 143.73 Z M 41.67 131.84 C 41.65 131.46 41.35 131.16 40.97 131.14 L 28.83 130.55 C 28.6 130.54 28.42 130.62 28.27 130.76 L 10.04 148.97 C 9.75 149.25 9.75 149.72 10.04 150.01 L 22.75 162.74 C 22.89 162.88 23.08 162.96 23.27 162.96 L 23.27 162.96 C 23.47 162.96 23.65 162.88 23.79 162.74 L 42.02 144.54 C 42.17 144.39 42.25 144.19 42.24 143.98 Z" fill="#50a294" stroke="none" pointer-events="all"/></g></svg>