<?xml version="1.0" encoding="UTF-8"?>
<!DOCTYPE svg PUBLIC "-//W3C//DTD SVG 1.1//EN" "http://www.w3.org/Graphics/SVG/1.1/DTD/svg11.dtd">
<svg xmlns="http://www.w3.org/2000/svg" xmlns:xlink="http://www.w3.org/1999/xlink" version="1.1" width="122px" height="88px" viewBox="-0.5 -0.5 122 88"><defs/><g><rect x="1" y="1" width="120" height="85" fill="#e6e6e6" stroke="#50a294" stroke-width="2" pointer-events="all"/><path d="M 41 25.39 C 41 21.59 49.95 18.5 61 18.5 C 72.05 18.5 81 21.59 81 25.39 L 81 61.6 C 81 65.41 72.05 68.5 61 68.5 C 49.95 68.5 41 65.41 41 61.6 Z" fill="none" stroke="#50a294" stroke-width="3" stroke-miterlimit="10" pointer-events="all"/><path d="M 41 25.39 C 41 29.2 49.95 32.29 61 32.29 C 72.05 32.29 81 29.2 81 25.39 M 41 36.77 C 41 40.58 49.95 43.67 61 43.67 C 72.05 43.67 81 40.58 81 36.77 M 41 49.7 C 41 53.51 49.95 56.6 61 56.6 C 72.05 56.6 81 53.51 81 49.7" fill="none" stroke="#50a294" stroke-width="3" stroke-miterlimit="10" pointer-events="all"/></g></svg>