<?xml version="1.0" encoding="UTF-8"?>
<!DOCTYPE svg PUBLIC "-//W3C//DTD SVG 1.1//EN" "http://www.w3.org/Graphics/SVG/1.1/DTD/svg11.dtd">
<svg xmlns="http://www.w3.org/2000/svg" xmlns:xlink="http://www.w3.org/1999/xlink" version="1.1" width="52px" height="52px" viewBox="-0.5 -0.5 52 52"><defs/><g><rect x="1" y="1" width="50" height="50" fill="none" stroke="none" pointer-events="all"/><path d="M 7.31 29.45 C 6.9 27.2 6.9 24.89 7.31 22.63 L 1.81 20.28 C 1.3 19.99 1 19.42 1.06 18.83 L 3.31 13.51 C 3.74 13.01 4.45 12.84 5.06 13.11 L 10.36 15.22 C 11.66 13.36 13.29 11.74 15.16 10.46 L 13.06 5.04 C 12.76 4.32 13.07 3.5 13.76 3.14 L 18.65 1.14 C 19.28 1 19.93 1.28 20.25 1.84 L 22.55 7.35 C 24.8 6.94 27.1 6.94 29.35 7.35 L 31.65 1.99 C 31.93 1.38 32.59 1.03 33.25 1.14 L 38.45 3.34 C 38.87 3.65 39.1 4.17 39.05 4.69 L 36.75 10.36 C 38.63 11.67 40.25 13.32 41.55 15.22 L 46.95 13.01 C 47.66 12.79 48.43 13.13 48.75 13.81 L 50.65 18.32 C 51 19.01 50.79 19.85 50.15 20.28 L 44.65 22.48 C 45.08 24.8 45.08 27.18 44.65 29.5 L 50.05 31.76 C 50.64 32.06 50.96 32.71 50.85 33.36 L 48.65 38.47 C 48.26 39.01 47.57 39.23 46.95 39.02 L 41.6 36.87 C 40.29 38.79 38.65 40.45 36.75 41.78 L 38.9 46.99 C 39.16 47.61 38.97 48.33 38.45 48.74 L 32.95 51 C 32.4 50.99 31.91 50.68 31.65 50.2 L 29.45 44.79 C 27.19 45.2 24.87 45.2 22.6 44.79 L 20.25 50.1 C 19.93 50.69 19.26 51 18.6 50.85 L 13.36 48.74 C 12.97 48.41 12.78 47.9 12.86 47.39 L 15.16 41.78 C 13.25 40.45 11.61 38.79 10.31 36.87 L 5.16 38.97 C 4.48 39.33 3.63 39.12 3.21 38.47 L 1.26 33.46 C 1.05 32.78 1.34 32.05 1.96 31.71 Z Z M 12.71 26.04 C 12.71 29.56 14.1 32.94 16.59 35.43 C 19.07 37.92 22.44 39.32 25.95 39.32 C 33.27 39.32 39.2 33.38 39.2 26.04 C 39.2 18.71 33.27 12.76 25.95 12.76 C 22.44 12.76 19.07 14.16 16.59 16.65 C 14.1 19.14 12.71 22.52 12.71 26.04 Z" fill="#e6e6e6" stroke="#50a294" stroke-width="2" stroke-miterlimit="10" pointer-events="all"/></g></svg>