<?xml version="1.0" encoding="UTF-8"?>
<!DOCTYPE svg PUBLIC "-//W3C//DTD SVG 1.1//EN" "http://www.w3.org/Graphics/SVG/1.1/DTD/svg11.dtd">
<svg xmlns="http://www.w3.org/2000/svg" xmlns:xlink="http://www.w3.org/1999/xlink" version="1.1" width="123px" height="88px" viewBox="-0.5 -0.5 123 88"><defs/><g><rect x="0" y="1" width="120" height="85" fill="#e6e6e6" stroke="#50a294" stroke-width="2" pointer-events="all"/><rect x="30" y="13.5" width="60" height="60" fill="none" stroke="none" pointer-events="all"/><path d="M 59.9 44.3 C 59.48 44.72 59.38 45.37 59.66 45.9 C 61.12 48.61 60.65 51.87 58.52 54.01 C 55.83 56.7 51.46 56.69 48.78 54.01 C 47.48 52.71 46.76 50.98 46.76 49.14 C 46.76 47.3 47.48 45.57 48.78 44.27 C 50.09 42.97 51.81 42.29 53.58 42.29 C 54.7 42.29 55.84 42.56 56.89 43.12 C 57.42 43.4 58.07 43.31 58.49 42.89 L 60.29 41.09 C 60.56 40.82 60.7 40.45 60.69 40.08 L 60.63 38.38 L 62.33 38.44 C 62.7 38.47 63.07 38.31 63.34 38.04 L 64.35 37.03 C 64.62 36.76 64.76 36.4 64.75 36.02 L 64.69 34.33 L 66.38 34.39 C 66.74 34.4 67.13 34.25 67.39 33.99 L 68.57 32.81 L 70.35 32.64 L 70.41 33.79 Z M 72.54 30.11 C 72.25 29.87 71.88 29.76 71.51 29.79 L 67.82 30.15 C 67.51 30.18 67.21 30.32 66.99 30.54 L 65.89 31.65 L 63.33 31.56 C 62.98 31.52 62.58 31.69 62.32 31.96 C 62.05 32.22 61.91 32.59 61.92 32.96 L 62.01 35.53 L 61.83 35.7 L 59.27 35.62 C 58.87 35.59 58.53 35.75 58.26 36.01 C 58 36.28 57.85 36.64 57.87 37.02 L 57.95 39.58 L 57.25 40.29 C 53.67 38.82 49.61 39.6 46.85 42.35 C 45.04 44.16 44.04 46.58 44.04 49.14 C 44.04 51.71 45.04 54.12 46.85 55.94 C 48.73 57.81 51.19 58.74 53.65 58.74 C 56.11 58.74 58.57 57.81 60.44 55.94 C 63.19 53.18 63.96 49.12 62.5 45.54 L 72.75 35.29 C 73.02 35.02 73.17 34.65 73.15 34.27 L 73 31.08 C 72.99 30.71 72.82 30.36 72.54 30.11 Z M 52.68 51.73 C 52.24 52.18 51.51 52.18 51.06 51.73 C 50.61 51.28 50.61 50.55 51.06 50.11 C 51.28 49.88 51.58 49.77 51.87 49.77 C 52.17 49.77 52.46 49.88 52.68 50.11 C 53.13 50.55 53.13 51.28 52.68 51.73 Z M 49.14 48.18 C 47.63 49.69 47.63 52.14 49.14 53.65 C 49.89 54.41 50.88 54.79 51.87 54.79 C 52.86 54.79 53.85 54.41 54.61 53.65 L 54.61 53.65 C 56.12 52.14 56.12 49.69 54.61 48.18 C 53.14 46.72 50.6 46.72 49.14 48.18 Z M 79.84 26.96 C 78.9 27.9 77.37 27.9 76.42 26.95 C 76.42 26.95 76.42 26.95 76.42 26.95 C 75.97 26.5 75.72 25.89 75.72 25.25 C 75.72 24.6 75.97 23.99 76.42 23.54 C 76.88 23.09 77.48 22.84 78.13 22.84 L 78.13 22.84 C 78.78 22.84 79.39 23.09 79.84 23.54 C 80.29 23.99 80.54 24.6 80.54 25.25 C 80.54 25.9 80.29 26.5 79.84 26.96 Z M 74.5 21.61 C 73.53 22.58 73 23.87 73 25.24 C 73 26.62 73.53 27.91 74.5 28.87 C 75.5 29.88 76.81 30.38 78.13 30.38 C 79.44 30.38 80.76 29.88 81.76 28.88 C 83.76 26.88 83.77 23.62 81.76 21.62 C 79.77 19.62 76.51 19.61 74.5 21.61 Z M 54.96 70.14 L 33.42 48.56 L 65.69 16.34 L 86.27 17.34 L 87.24 37.92 Z M 88.93 15.97 C 88.9 15.27 88.34 14.71 87.64 14.68 L 65.22 13.59 C 64.8 13.57 64.46 13.72 64.19 13.99 L 30.53 47.59 C 30 48.12 30 48.98 30.53 49.52 L 54 73.03 C 54.25 73.28 54.6 73.43 54.96 73.43 L 54.96 73.43 C 55.32 73.43 55.67 73.28 55.92 73.03 L 89.58 39.42 C 89.86 39.15 90 38.78 89.98 38.39 Z" fill="#50a294" stroke="none" pointer-events="all"/></g></svg>